<svg width="63" height="30" viewBox="0 0 63 30" fill="none" xmlns="http://www.w3.org/2000/svg">
<g clip-path="url(#clip0_38_203)">
<path d="M62.9697 4.5331C62.1487 4.09681 58.895 4.42405 57.5509 4.45864C56.5292 4.49588 55.2946 4.67944 54.206 4.72467C53.9445 4.72467 53.2938 4.66612 52.64 4.63419C51.9862 4.60227 51.3598 4.59963 51.1439 4.75392C51.1151 4.77075 51.0895 4.79139 51.0679 4.81511C51.0534 4.8269 51.042 4.84135 51.0346 4.85745C51.0273 4.87356 51.0241 4.8909 51.0253 4.90821C51.0253 4.90821 51.0253 4.92153 51.0253 4.92685C50.9965 5.6669 51.1138 6.40575 51.372 7.11093C44.2351 8.94653 36.9554 10.6624 29.627 11.6334C28.1978 11.817 26.7625 11.9633 25.3242 12.0644C23.8859 12.1655 22.4415 12.1974 21.0062 12.1681C18.1417 12.1402 15.2997 11.721 12.5831 10.9258C12.2456 10.8247 11.9202 10.705 11.5887 10.5932C11.2607 10.488 10.9398 10.3664 10.6278 10.2288C10.0229 9.97763 9.46841 9.64255 8.98579 9.23649C8.54191 8.8741 8.25322 8.38966 8.16779 7.86378C8.11827 7.32982 8.24381 6.7946 8.52967 6.32083C8.82474 5.79699 9.2047 5.31314 9.65781 4.88428C10.0967 4.42983 10.58 4.0097 11.1022 3.62863C12.1618 2.87511 13.3527 2.27512 14.6296 1.85155L15.0948 1.69726L15.3259 1.6201L15.5662 1.56425L16.524 1.33014L17.5001 1.17316L17.7434 1.13329L17.9927 1.11198L18.4854 1.07207L18.981 1.02953H20.2186L20.468 1.04814L21.4532 1.12263L22.4263 1.27692C23.7109 1.52107 24.9428 1.94318 26.0753 2.52727L26.8811 3.01675C27.0193 3.09547 27.1496 3.18448 27.2703 3.28278C27.395 3.37589 27.5258 3.46102 27.6413 3.54881C28.1281 3.93435 28.5711 4.36021 28.9641 4.82043C30.5499 6.71695 31.4022 9.00691 31.3967 11.3567C31.418 13.6951 30.6091 16.0761 28.9184 17.8824C28.1095 18.7149 27.1501 19.4257 26.0783 19.9867C24.9587 20.5732 23.7861 21.0785 22.5722 21.4977C20.0939 22.373 17.5184 23.2003 14.9701 24.0197C9.87674 25.6664 4.85936 27.2865 0.413663 29.3402C-0.477302 29.7499 0.109584 30.2421 1.06441 29.8723C6.13652 27.9861 11.3394 26.3501 16.5453 24.6236C17.8427 24.1926 19.1411 23.7545 20.4406 23.3094C21.736 22.8571 23.0344 22.4182 24.3116 21.8968C25.6044 21.3846 26.8282 20.7484 27.9606 20C29.1189 19.228 30.0913 18.2634 30.822 17.1615C32.2695 14.9151 32.8285 12.3134 32.4124 9.76056C32.0651 7.20889 30.7504 4.83264 28.6782 3.01143C26.5491 1.25705 23.788 0.20635 20.8694 0.039913C19.4357 -0.069167 17.9914 0.0106153 16.5848 0.27665C15.1757 0.535 13.8153 0.965782 12.5436 1.55626C11.2995 2.15539 10.1649 2.91397 9.17737 3.80685C8.69076 4.2689 8.24741 4.76444 7.85157 5.28864C7.43715 5.84516 7.15673 6.46971 7.02748 7.12421C6.96546 7.47731 6.97164 7.83701 7.04574 8.18832C7.1253 8.53911 7.27231 8.87556 7.48056 9.1833C7.89136 9.76384 8.44766 10.255 9.1074 10.6198C9.71953 10.9695 10.3731 11.2602 11.0566 11.4871L12.0479 11.8223L13.0575 12.1096C14.4111 12.4696 15.7949 12.7364 17.196 12.9077C18.594 13.0667 20.0011 13.1555 21.4106 13.1737C24.2065 13.1838 26.9991 13.0059 29.7638 12.6417C37.2562 11.6984 44.655 10.2541 51.895 8.32134C52.0045 8.50756 52.117 8.6938 52.2386 8.8747C52.5153 9.28172 52.567 9.86167 53.3759 9.80846C53.6105 9.7889 53.8408 9.74053 54.0601 9.66479C54.7406 9.42564 55.3933 9.1299 56.0093 8.7816C56.6448 8.4331 57.256 8.06332 57.7912 7.78133C58.0557 7.63501 59.4788 6.90873 60.7529 6.16119C62.0271 5.41365 63.2069 4.65813 62.9697 4.5331Z" fill="#FCF2D6"/>
</g>
<defs>
<clipPath id="clip0_38_203">
<rect width="63" height="30" fill="white"/>
</clipPath>
</defs>
</svg>
