<svg width="90" height="93" viewBox="0 0 90 93" fill="none" xmlns="http://www.w3.org/2000/svg">
<g clip-path="url(#clip0_38_207)">
<path d="M24.0224 11.8839C24.3515 12.3381 24.7628 12.7277 25.2309 13.0288C25.8047 13.4376 26.5139 13.8771 27.2431 14.3329C28.7128 15.2149 30.2731 16.1392 31.1589 16.7143C31.8269 17.1624 32.5982 17.5822 33.3682 18.043C34.1382 18.5039 34.9119 18.955 35.5984 19.4673C35.9283 19.7114 36.6763 20.4308 37.4223 21.1053C38.1683 21.7797 38.9156 22.413 39.3251 22.4162C39.3757 22.4244 39.4265 22.4238 39.4753 22.4144C39.5045 22.4128 39.5324 22.4046 39.557 22.3905C39.5817 22.3763 39.6024 22.3565 39.6179 22.3326C39.6179 22.3326 39.6179 22.3326 39.6459 22.3086C40.434 21.3453 41.0486 20.2424 41.4651 19.0439C46.8338 21.4858 51.9949 24.4498 56.8703 27.8908C59.3238 29.5935 61.6601 31.4758 63.858 33.5207C66.0569 35.5507 67.9348 37.9128 69.4127 40.5077C69.9655 41.5238 70.4171 42.5862 70.7603 43.6777C70.9314 44.2176 71.072 44.7644 71.1815 45.3153C71.234 45.59 71.2624 45.872 71.2941 46.1579C71.3444 46.4315 71.3765 46.7066 71.3903 46.9812C71.4672 48.0914 71.4005 49.1937 71.1918 50.26C70.9755 51.3185 70.6413 52.3384 70.1955 53.3013C69.7371 54.2589 69.195 55.1673 68.5751 56.0168C67.9372 56.8489 67.2391 57.6298 66.4857 58.3539C64.9657 59.7872 63.2658 61.0155 61.4219 62.0131C57.7481 64.0253 53.6937 65.3313 49.4439 65.8716C48.4016 66.0081 47.3475 66.086 46.2864 66.105C45.2422 66.1142 44.1909 66.032 43.1443 65.8592C42.1157 65.703 41.0967 65.4347 40.1055 65.059C39.1507 64.7094 38.2395 64.2221 37.4017 63.6133C36.6462 63.046 36.004 62.3328 35.5175 61.5208C35.0357 60.7209 34.7393 59.8329 34.6527 58.9305C34.4857 57.1357 35.2003 55.3069 36.2965 53.8114C37.4526 52.2712 38.9258 51.013 40.6279 50.112C42.3582 49.1534 44.2305 48.4502 46.1938 48.0215C50.1266 47.0948 54.3478 47.3906 58.3329 48.8722C60.3068 49.635 62.1714 50.7156 63.8501 52.0696C65.5301 53.4299 67.0072 55.0369 68.2245 56.8289C69.3332 58.4992 70.16 60.3285 70.6669 62.233C71.1646 64.1568 71.292 66.1269 71.0419 68.0313C70.5655 71.8528 68.7052 75.2368 65.812 77.5447C64.4019 78.6325 62.7744 79.417 61.0171 79.8556C59.1987 80.3134 57.3274 80.5967 55.4267 80.7021C51.5616 80.9672 47.4807 80.944 43.7677 81.8848C42.284 82.2798 43.0897 83.3227 44.5925 83.0779C48.6386 82.4917 52.9298 82.7681 57.1147 82.4296C59.2242 82.2906 61.2827 81.875 63.2398 81.1929C65.204 80.4755 66.9613 79.3353 68.3994 77.8449C69.8447 76.3377 70.9777 74.5462 71.7414 72.5605C72.5101 70.549 72.8984 68.3787 72.8877 66.1552C72.8359 63.9028 72.3578 61.642 71.4792 59.4953C70.5871 57.3564 69.3468 55.3583 67.8142 53.5907C66.2645 51.805 64.4583 50.264 62.4676 49.0293C60.4771 47.7935 58.3263 46.8872 56.1043 46.3481C53.8998 45.8078 51.6579 45.5975 49.4524 45.7243C47.2587 45.8373 45.1183 46.2586 43.0913 46.9762C42.0772 47.3275 41.0942 47.751 40.1493 48.2439C39.1953 48.7334 38.2937 49.3117 37.4551 49.9723C35.7354 51.2841 34.3855 53.0212 33.5161 55.0409C33.0818 56.08 32.8628 57.215 32.8719 58.3807C32.8979 59.5605 33.1862 60.7434 33.7153 61.8416C34.2712 62.9262 35.0448 63.8951 35.9815 64.6798C36.8978 65.4503 37.9218 66.0702 39.0106 66.5135C41.1023 67.3686 43.297 67.837 45.4843 67.8953C47.6411 67.9367 49.7758 67.7491 51.8537 67.3355C56.0288 66.5621 59.9822 65.0693 63.5494 62.9191C65.3641 61.8212 67.0255 60.4983 68.4996 58.9775C70.0166 57.4133 71.234 55.5719 72.0992 53.5329C72.9896 51.4078 73.3446 49.0501 73.1345 46.6566C72.8771 44.2788 72.1359 41.9366 70.9584 39.7801C69.3967 37.0078 67.4309 34.4661 65.1346 32.2506C64.0147 31.1431 62.8499 30.0896 61.64 29.09L59.8342 27.6297C59.2219 27.1473 58.5986 26.6876 57.9826 26.2151C53.0008 22.501 47.6492 19.3708 42.0434 16.8921C42.0995 16.5313 42.1358 16.1474 42.1882 15.7965C42.2628 14.967 42.8088 14.1279 41.6937 13.3625C41.3653 13.1473 41.014 12.9749 40.649 12.85C39.5139 12.4712 38.3527 12.215 37.1858 12.086C35.9887 11.9567 34.8252 11.8453 33.8346 11.7658C33.5897 11.742 32.8147 11.6449 31.8215 11.5411C30.8284 11.4372 29.5713 11.3657 28.3768 11.3673C27.7693 11.3668 27.1963 11.3569 26.6634 11.3726C26.1305 11.3883 25.6375 11.4365 25.2333 11.4821C24.3915 11.5486 23.9093 11.6875 24.0224 11.8839Z" fill="#FCF2D6"/>
</g>
<defs>
<clipPath id="clip0_38_207">
<rect width="79.0688" height="49.7056" fill="white" transform="translate(51.3511 92.4056) rotate(-130.5)"/>
</clipPath>
</defs>
</svg>
