<svg width="15" height="17" viewBox="0 0 15 17" fill="none" xmlns="http://www.w3.org/2000/svg">
<path d="M13.992 13.5254L11.6778 10.6901L9.89772 9.78907C10.4904 8.75643 10.808 7.52449 10.8068 6.2621C10.8068 2.86863 8.55339 0.107864 5.78354 0.107864C3.01368 0.107864 0.760254 2.86863 0.760254 6.2621C0.760254 9.65556 3.01368 12.4163 5.78354 12.4163C6.82291 12.4178 7.83677 12.022 8.68388 11.2842L9.41739 13.4592L11.7316 16.2946C11.88 16.4764 12.0562 16.6207 12.2501 16.7191C12.444 16.8175 12.6518 16.8682 12.8617 16.8682C13.0716 16.8682 13.2795 16.8175 13.4734 16.7191C13.6673 16.6207 13.8435 16.4765 13.992 16.2947C14.1404 16.1128 14.2581 15.897 14.3385 15.6594C14.4188 15.4218 14.4601 15.1672 14.4601 14.91C14.4601 14.6529 14.4188 14.3982 14.3385 14.1607C14.2582 13.9231 14.1404 13.7072 13.992 13.5254ZM1.67358 6.2621C1.67358 3.4857 3.51735 1.22682 5.78354 1.22682C8.04972 1.22682 9.89349 3.4857 9.89349 6.2621C9.89349 9.0385 8.04972 11.2974 5.78354 11.2974C3.51735 11.2974 1.67358 9.0385 1.67358 6.2621ZM13.3462 15.5034C13.2176 15.6605 13.0434 15.7488 12.8618 15.7488C12.6802 15.7488 12.506 15.6605 12.3774 15.5034L10.1919 12.8259L9.50998 10.8035L11.1607 11.639L13.3462 14.3166C13.4745 14.4741 13.5465 14.6875 13.5465 14.91C13.5465 15.1325 13.4744 15.3459 13.3462 15.5034Z" fill="#FCF2D6"/>
</svg>
