<svg width="11" height="11" viewBox="0 0 11 11" fill="none" xmlns="http://www.w3.org/2000/svg">
<path d="M10.7063 0.293754C10.588 0.176359 10.4397 0.09383 10.2776 0.0552383C10.1156 0.0166466 9.94597 0.0234858 9.78752 0.0750042L0.643767 3.125C0.474186 3.17874 0.324333 3.28152 0.213134 3.42038C0.101935 3.55923 0.0343781 3.72792 0.0189964 3.90514C0.00361463 4.08237 0.0410977 4.26017 0.126711 4.41611C0.212325 4.57204 0.34223 4.69911 0.500017 4.78125L4.29377 6.65625L6.16877 10.4625C6.24413 10.6115 6.35945 10.7366 6.50184 10.8238C6.64422 10.911 6.80805 10.9568 6.97502 10.9563H7.03752C7.21633 10.9431 7.38704 10.8764 7.52748 10.765C7.66792 10.6535 7.77159 10.5024 7.82502 10.3313L10.9188 1.2125C10.974 1.05496 10.9834 0.884968 10.9457 0.722315C10.9081 0.559661 10.8251 0.41104 10.7063 0.293754ZM1.03127 3.9875L9.01252 1.325L4.58127 5.75625L1.03127 3.9875ZM7.01877 9.96875L5.24377 6.41875L9.67502 1.9875L7.01877 9.96875Z" fill="#FCF2D6"/>
</svg>

