<svg width="15" height="15" viewBox="0 0 15 15" fill="none" xmlns="http://www.w3.org/2000/svg">
<g clip-path="url(#clip0_35_24)">
<path d="M7.5 5.93751L7.165 6.26501C7.20865 6.30961 7.26077 6.34504 7.31829 6.36923C7.37582 6.39342 7.43759 6.40588 7.5 6.40588C7.56241 6.40588 7.62418 6.39342 7.68171 6.36923C7.73923 6.34504 7.79135 6.30961 7.835 6.26501L7.5 5.93813V5.93751ZM6.57125 8.98188C6.20812 8.67313 5.84313 8.31438 5.5725 7.94438C5.29688 7.56626 5.15625 7.22626 5.15625 6.94313H4.21875C4.21875 7.51563 4.49062 8.05188 4.81562 8.49688C5.14625 8.95001 5.57188 9.36188 5.96438 9.69626L6.57188 8.98188H6.57125ZM5.15625 6.94313C5.15625 6.25126 5.46563 5.88751 5.78313 5.76813C6.10688 5.64751 6.62187 5.71188 7.165 6.26626L7.835 5.61063C7.1125 4.87313 6.22187 4.60313 5.455 4.89001C4.68312 5.17876 4.21875 5.96251 4.21875 6.94313H5.15625ZM9.03562 9.69688C9.42812 9.36313 9.85375 8.95063 10.1844 8.49813C10.5094 8.05251 10.7812 7.51626 10.7812 6.94376H9.84375C9.84375 7.22688 9.70312 7.56688 9.4275 7.94501C9.15687 8.31563 8.79187 8.67376 8.42875 8.98251L9.03562 9.69688ZM10.7812 6.94376C10.7812 5.96251 10.3169 5.17876 9.545 4.89001C8.77813 4.60313 7.8875 4.87251 7.165 5.61063L7.835 6.26688C8.37813 5.71188 8.89375 5.64751 9.21625 5.76813C9.535 5.88688 9.84375 6.25188 9.84375 6.94376H10.7812ZM5.96438 9.69688C6.45188 10.1113 6.83938 10.4656 7.5 10.4656V9.52813C7.24125 9.52813 7.11437 9.44376 6.57125 8.98188L5.96438 9.69688ZM8.42875 8.98251C7.88563 9.44438 7.75875 9.52813 7.5 9.52813V10.4656C8.16062 10.4656 8.54875 10.1113 9.03562 9.69688L8.42812 8.98251H8.42875Z" fill="#FCF2D6"/>
<path d="M10.625 2.08626C9.6753 1.53682 8.59718 1.24832 7.5 1.25001C4.04813 1.25001 1.25 4.04813 1.25 7.50001C1.25 8.50001 1.485 9.44501 1.90187 10.2831C2.01312 10.5056 2.05 10.76 1.98563 11.0006L1.61375 12.3919C1.57706 12.5295 1.57719 12.6744 1.61415 12.812C1.65111 12.9495 1.72358 13.075 1.82431 13.1757C1.92503 13.2764 2.05047 13.3489 2.18804 13.3859C2.32561 13.4228 2.47048 13.423 2.60812 13.3863L3.99938 13.0144C4.24088 12.9536 4.49627 12.9832 4.7175 13.0975C5.58183 13.5279 6.53444 13.7513 7.5 13.75C10.9519 13.75 13.75 10.9519 13.75 7.50001C13.75 6.36188 13.4456 5.29376 12.9138 4.37501" stroke="#FCF2D6" stroke-width="1.875" stroke-linecap="round"/>
</g>
<defs>
<clipPath id="clip0_35_24">
<rect width="15" height="15" fill="white"/>
</clipPath>
</defs>
</svg>
